<svg id="Layer_1" data-name="Layer 1" xmlns="http://www.w3.org/2000/svg" viewBox="0 0 1067.35 624.533">
  <path d="M600.417,33.857C404.359-47,169.208,92.017,114.78,206.688c-130.692,275.351,97.7,402.433,198.173,355.948,41.945-19.406,76.207-52.543,109.321-84.783,48.973-47.681,116.343-75.966,184.675-77.537,53.2-1.223,106.148,13.054,159.2,8.861s99.91-77.355,98.472-130.551C862.424,197.434,810.658,120.567,600.417,33.857Z" fill="#f4f4f4"></path>
  <g>
    <rect x="87.189" y="391.06" width="2" height="225.684" transform="translate(-54.293 12.584) rotate(-6.245)" fill="#292a2e"></rect>
    <rect x="75.4" y="548.401" width="120.091" height="2" transform="translate(-424.791 628.908) rotate(-84.228)" fill="#292a2e"></rect>
    <rect x="71.642" y="594.601" width="89.616" height="29.083" fill="#292a2e"></rect>
    <rect x="71.642" y="594.601" width="89.616" height="29.083" fill="#fff" opacity="0.2"></rect>
    <ellipse cx="166.468" cy="504.325" rx="51.126" ry="61.09" transform="translate(-336.612 334.129) rotate(-53.042)" fill="#0cbc8b"></ellipse>
    <ellipse cx="166.468" cy="504.325" rx="51.126" ry="61.09" transform="translate(-336.612 334.129) rotate(-53.042)" fill="#fff" opacity="0.2"></ellipse>
    <path d="M215.28,541.054a41.056,41.056,0,0,1-3.723,4.314c-18.688,11.939-46.271,10.06-68.154-6.408-26.957-20.281-35.048-55.015-18.07-77.578a43.279,43.279,0,0,1,3.715-4.314c18.7-11.948,46.271-10.06,68.162,6.4C224.167,483.757,232.258,518.491,215.28,541.054Z" fill="#fff" opacity="0.5"></path>
    <ellipse cx="58.075" cy="413.799" rx="61.09" ry="52.607" transform="translate(-240.749 121.725) rotate(-37.665)" fill="#0cbc8b"></ellipse>
    <path d="M81.756,449.532c-20.683,15.976-46.969,18.41-66.023,8.011a46.131,46.131,0,0,1-6.015-6.418C-8.038,428.133-.78,392.772,25.926,372.16c20.684-15.966,46.97-18.41,66.015-8.019a45.6,45.6,0,0,1,6.023,6.426C115.721,393.56,108.463,428.921,81.756,449.532Z" fill="#fff" opacity="0.2"></path>
  </g>
  <g>
    <g>
      <rect x="149.894" y="26.643" width="594.477" height="481.398" rx="31.867" fill="#fff"></rect>
      <path d="M712.505,509.041H181.762a32.905,32.905,0,0,1-32.868-32.868V58.51a32.9,32.9,0,0,1,32.868-32.867H712.505A32.9,32.9,0,0,1,745.372,58.51V476.173A32.9,32.9,0,0,1,712.505,509.041ZM181.762,27.643A30.9,30.9,0,0,0,150.894,58.51V476.173a30.9,30.9,0,0,0,30.868,30.868H712.505a30.9,30.9,0,0,0,30.867-30.868V58.51a30.9,30.9,0,0,0-30.867-30.867Z" fill="#292a2e"></path>
    </g>
    <rect x="652.755" y="113.185" width="57.463" height="57.463" rx="12.437" fill="#367cff" opacity="0.7"></rect>
    <rect x="652.755" y="184.629" width="57.463" height="57.463" rx="12.562" fill="#367cff" opacity="0.7"></rect>
    <rect x="652.755" y="265.468" width="57.463" height="57.463" rx="12.562" fill="#367cff" opacity="0.7"></rect>
    <rect x="652.755" y="343.306" width="57.463" height="57.463" rx="12.562" fill="#367cff" opacity="0.7"></rect>
    <g opacity="0.2">
      <rect x="418.438" y="113.185" width="57.463" height="57.463" rx="12.437" fill="#367cff"></rect>
      <rect x="340.332" y="113.185" width="57.463" height="57.463" rx="12.437" fill="#367cff"></rect>
      <rect x="496.543" y="113.185" width="57.463" height="57.463" rx="12.437" fill="#367cff"></rect>
      <rect x="574.649" y="113.185" width="57.463" height="57.463" rx="12.437" fill="#367cff"></rect>
      <rect x="418.438" y="184.629" width="57.463" height="57.463" rx="12.562" fill="#367cff"></rect>
      <rect x="496.543" y="184.629" width="57.463" height="57.463" rx="12.562" fill="#367cff"></rect>
      <rect x="574.649" y="184.629" width="57.463" height="57.463" rx="12.562" fill="#367cff"></rect>
      <rect x="184.121" y="184.629" width="57.463" height="57.463" rx="12.562" fill="#367cff"></rect>
      <rect x="262.227" y="184.629" width="57.463" height="57.463" rx="12.562" fill="#367cff"></rect>
      <rect x="340.332" y="184.629" width="57.463" height="57.463" rx="12.562" fill="#367cff"></rect>
      <rect x="418.438" y="265.468" width="57.463" height="57.463" rx="12.562" fill="#367cff"></rect>
      <rect x="496.543" y="265.468" width="57.463" height="57.463" rx="12.562" fill="#367cff"></rect>
      <rect x="574.649" y="265.468" width="57.463" height="57.463" rx="12.562" fill="#367cff"></rect>
      <rect x="184.121" y="265.468" width="57.463" height="57.463" rx="12.562" fill="#367cff"></rect>
      <rect x="262.227" y="265.468" width="57.463" height="57.463" rx="12.562" fill="#367cff"></rect>
      <rect x="340.332" y="265.468" width="57.463" height="57.463" rx="12.562" fill="#367cff"></rect>
      <rect x="418.438" y="343.306" width="57.463" height="57.463" rx="12.562" fill="#367cff"></rect>
      <rect x="496.543" y="343.306" width="57.463" height="57.463" rx="12.562" fill="#367cff"></rect>
      <rect x="574.649" y="343.306" width="57.463" height="57.463" rx="12.562" fill="#367cff"></rect>
      <rect x="184.121" y="343.306" width="57.463" height="57.463" rx="12.562" fill="#367cff"></rect>
      <rect x="262.227" y="343.306" width="57.463" height="57.463" rx="12.562" fill="#367cff"></rect>
      <rect x="340.332" y="343.306" width="57.463" height="57.463" rx="12.562" fill="#367cff"></rect>
      <rect x="418.438" y="414.946" width="57.463" height="57.463" rx="12.562" fill="#367cff"></rect>
      <rect x="184.121" y="414.946" width="57.463" height="57.463" rx="12.562" fill="#367cff"></rect>
      <rect x="262.227" y="414.946" width="57.463" height="57.463" rx="12.562" fill="#367cff"></rect>
      <rect x="340.332" y="414.946" width="57.463" height="57.463" rx="12.562" fill="#367cff"></rect>
    </g>
    <path d="M744.371,58.513V78.942H149.9V58.513a31.865,31.865,0,0,1,31.865-31.874H712.507A31.87,31.87,0,0,1,744.371,58.513Z" fill="#292a2e"></path>
    <g>
      <path d="M257.855,25.643A25.643,25.643,0,1,1,283.5,51.285a2.166,2.166,0,0,1,0-4.332,21.311,21.311,0,1,0-21.311-21.31" fill="#e5e5e5"></path>
      <path d="M388.763,25.643a25.643,25.643,0,1,1,25.643,25.642,2.166,2.166,0,1,1,0-4.332A21.311,21.311,0,1,0,393.1,25.643" fill="#e5e5e5"></path>
      <path d="M519.672,25.643a25.643,25.643,0,1,1,25.643,25.642,2.166,2.166,0,0,1,0-4.332A21.311,21.311,0,1,0,524,25.643" fill="#e5e5e5"></path>
      <path d="M585.126,25.643a25.643,25.643,0,1,1,25.643,25.642,2.166,2.166,0,0,1,0-4.332,21.311,21.311,0,1,0-21.311-21.31" fill="#e5e5e5"></path>
      <path d="M192.4,25.643a25.643,25.643,0,1,1,25.643,25.642,2.166,2.166,0,0,1,0-4.332,21.311,21.311,0,1,0-21.311-21.31" fill="#e5e5e5"></path>
      <path d="M323.309,25.643a25.643,25.643,0,1,1,25.643,25.642,2.166,2.166,0,0,1,0-4.332,21.311,21.311,0,1,0-21.311-21.31" fill="#e5e5e5"></path>
      <path d="M454.218,25.643A25.643,25.643,0,1,1,479.86,51.285a2.166,2.166,0,0,1,0-4.332,21.311,21.311,0,1,0-21.311-21.31" fill="#e5e5e5"></path>
      <path d="M650.581,25.643a25.643,25.643,0,1,1,25.642,25.642,2.166,2.166,0,1,1,0-4.332,21.311,21.311,0,1,0-21.31-21.31" fill="#e5e5e5"></path>
    </g>
    <path d="M279.732,387.837c-.091,0-.182,0-.274-.013a3.034,3.034,0,0,1-2.14-1.184L268.165,374.6a3.032,3.032,0,1,1,4.828-3.67l7.145,9.4,27.423-25.03a3.032,3.032,0,0,1,4.088,4.479l-29.873,27.266A3.033,3.033,0,0,1,279.732,387.837Z" fill="#367cff"></path>
    <rect x="346.689" y="421.303" width="44.75" height="44.75" rx="6.931" fill="#367cff"></rect>
    <g>
      <path d="M585.649,162.792a3.033,3.033,0,0,1-2.186-5.133L618.7,120.986a3.032,3.032,0,1,1,4.373,4.2L587.836,161.86A3.021,3.021,0,0,1,585.649,162.792Z" fill="#0a0a0a"></path>
      <path d="M621.605,162.075a3.023,3.023,0,0,1-2.1-.846L582.832,125.99a3.032,3.032,0,1,1,4.2-4.373l36.673,35.239a3.033,3.033,0,0,1-2.1,5.219Z" fill="#0a0a0a"></path>
    </g>
  </g>
  <g>
    <g>
      <g>
        <path d="M949.953,212.954s2.717,32.173,10.171,43.73c21.458,33.273,28.173,71.014,7.632,91.156s-153.791,22.781-164.692-22.52c-9.177-38.138,8.988-42.578,12.866-74.242,1.755-14.328,6.747-44.394,6.747-44.394" fill="#0a0a0a"></path>
        <path id="sk" d="M836.255,317.559c.23-.03,2.783,42.33,51.994,38.637,34.068-2.552,46.215-38.7,47-38.7-3.673-.78-9.858-1.915-11.489-2.786-5.365-2.883-12-5.882-13.732-16.3-1-6,.694-36.722.174-42.8L857.9,267.288c.73,12.831,5.845,42.575-12.08,47.839C842.84,316,839.628,316.8,836.255,317.559Z" fill="#E98862"></path>
        <path id="sh" d="M857.17,302.971a37.911,37.911,0,0,0,1.573-8.116,86.565,86.565,0,0,0-.342-18.877,57.338,57.338,0,0,0,28.9-12.663c.971,3.586,6.312,19.256,4.833,22.664C889.341,292.422,876.207,302.971,857.17,302.971Z" fill="#0c0c0c" opacity="0.5"></path>
        <path d="M864.618,289.769c20.649,1.629,47.175-7.089,52.214-34.639l4.546-24.859c5.039-27.55-5.347-52.53-31.286-57.274h0c-25.94-4.744-49.413,14.044-54.452,41.594l-2.013,11C831.694,236.167,827.775,286.862,864.618,289.769Z" fill="#E98862"></path>
        <path d="M856.187,251.665l-.051-.007a29.017,29.017,0,0,1-3.111-.773c-1.527-.481-3.528-1.279-3.276-2.657.286-1.569,7.684-17.72,8.527-19.557a.666.666,0,0,1,1.21.556c-3.156,6.877-8.235,18.184-8.427,19.241.174.488,2.709,1.4,5.317,1.88a.666.666,0,0,1-.189,1.317Z" fill="#0c0c0c" opacity="0.5"></path>
        <path d="M860.1,263.522a27.214,27.214,0,0,1-11.817-4.406A.666.666,0,0,1,849,258c7.658,4.923,15.242,5.68,21.931,2.19a4.283,4.283,0,0,1,.417-.2.666.666,0,0,1,.46,1.249c-.053.022-.14.069-.261.133A19.949,19.949,0,0,1,860.1,263.522Z" fill="#0c0c0c" opacity="0.5"></path>
        <path d="M942.159,238.8l-23.252-4.116c-17.634-7.009-23.141-37.427-23.141-37.427s-21.238,20.956-73.089,9.43c0,0,9.938-72.273,86.561-51.747,24.707,6.619,42.563,31.365,40.562,64.6C948.4,242.825,942.159,238.8,942.159,238.8Z" fill="#0a0a0a"></path>
        <path d="M913.686,263.228c7.883,1.442,15.816-5.823,17.257-13.706s-4.153-13.4-12.036-14.841l-5.028,4.54-6.971,22.768Z" fill="#E98862"></path>
        <path d="M852.48,216a13.625,13.625,0,0,0-6.706-2.329,12.014,12.014,0,0,0-3.6.263,14.534,14.534,0,0,0-3.429,1.229l-.035.017a.509.509,0,0,1-.449-.914,15.62,15.62,0,0,1,3.651-1.448,13.2,13.2,0,0,1,3.93-.419,14.985,14.985,0,0,1,7.544,2.371.764.764,0,0,1-.837,1.279l-.018-.013Z" fill="#0c0c0c"></path>
        <path d="M873.7,218.552a14.992,14.992,0,0,1,7.9.417,13.234,13.234,0,0,1,3.536,1.767,15.635,15.635,0,0,1,2.913,2.634.509.509,0,0,1-.739.7l-.028-.028a14.52,14.52,0,0,0-2.782-2.351,12.034,12.034,0,0,0-3.281-1.506,13.633,13.633,0,0,0-7.1-.163l-.058.015a.764.764,0,1,1-.386-1.478Z" fill="#0c0c0c"></path>
        <path d="M859.237,269.775a13.515,13.515,0,0,1-2.265-.441.665.665,0,1,1,.36-1.281c4.461,1.254,6.983-.459,7.089-.533a.666.666,0,0,1,.771,1.085A9.019,9.019,0,0,1,859.237,269.775Z" fill="#0c0c0c" opacity="1"></path>
        <path d="M918.884,234.3c-15.679-5.521-21.039-16.188-22.773-24.164a39.041,39.041,0,0,1,0-16.138l.484.124a38.553,38.553,0,0,0,.011,15.926c1.711,7.845,6.994,18.34,22.447,23.781Z" fill="#0c0c0c"></path>
      </g>
      <ellipse cx="877.54" cy="249.047" rx="4.538" ry="6.187" transform="translate(541.253 1096.992) rotate(-84.211)" fill="#0c0c0c" opacity="0.1"></ellipse>
      <path d="M841.061,244.25c-.26,2.49-3.22,4.23-6.62,3.89a8.554,8.554,0,0,1-1.73-.36c-.21-2.96-.27-5.81-.23-8.45a7.793,7.793,0,0,1,2.88-.22C838.761,239.45,841.311,241.75,841.061,244.25Z" fill="#0c0c0c" opacity="0.1"></path>
    </g>
    <polygon points="990.839 569.245 999.744 623.533 777.645 623.533 785.947 568.917 990.839 569.245" fill="#262626"></polygon>
    <path id="b_1_b" d="M889.378,345.669c34.092-1.607,35.527-30.544,35.527-30.544s16.892,1.092,28.121,2.611c18.384,2.488,30.544,7.931,40.2,17.582,8.978,8.979,14.413,19.483,8.629,81.5-4.188,44.906-11.011,152.426-11.011,152.426l-204.892-.328s-9.117-137.883-10.837-158.1c-3.282-38.589-8.465-92.979,2.535-95.694,12.816-3.163,54.648,2.037,68.178,0C846.051,315.093,842.95,347.857,889.378,345.669Z" fill="#367cff"></path>
    <g>
      <path d="M516.248,194.411a5.421,5.421,0,0,0-7.414-2.634,5.626,5.626,0,0,0-2.372,7.305l2.965,6.691-19.048-16.821c-2.086-1.907-5.864-2.914-7.849-.434a5.413,5.413,0,0,0-.456,6.726.405.405,0,0,0-.068.056.589.589,0,0,0-.032.054l-3.215-2.941a5.425,5.425,0,0,0-8.3,1.2,5.551,5.551,0,0,0,1.137,6.931l1.369,1.252a.52.52,0,0,0-.024.179,5.414,5.414,0,0,0-6.844,1.278,5.626,5.626,0,0,0,.758,7.643l3.364,3.076a.5.5,0,0,0-.431.156.49.49,0,0,0-.11.255,5.424,5.424,0,0,0-5.94,2.46,5.552,5.552,0,0,0,1.139,6.931L493.549,250a27.292,27.292,0,0,0,30.182,4.488l15.795-7.544Z" fill="#E98862"></path>
      <g opacity="0.2">
        <path d="M500.841,211.991a.5.5,0,0,1-.7.035l-18.094-16.02a.5.5,0,0,1,.663-.749l18.094,16.02a.5.5,0,0,1,.043.706Z" fill="#0c0c0c"></path>
      </g>
      <g opacity="0.2">
        <path d="M494,220.167a.5.5,0,0,1-.7.034l-20.193-17.878a.5.5,0,0,1-.043-.706.517.517,0,0,1,.706-.043l20.193,17.878a.5.5,0,0,1,.043.706Z" fill="#0c0c0c"></path>
      </g>
      <g opacity="0.2">
        <path d="M486.633,229.064a.5.5,0,0,1-.7.034l-16.108-14.261a.5.5,0,0,1,.663-.749L486.6,228.349a.5.5,0,0,1,.042.706Z" fill="#0c0c0c"></path>
      </g>
    </g>
    <path d="M534.513,212.954,643.1,301.9l160.31,13.56a37.5,37.5,0,0,1-3.118,74.869q-1.591,0-3.2-.136L624.975,375.639a37.509,37.509,0,0,1-20.885-8.591L490.37,266.161Z" fill="#367cff"></path>
    <g>
      <polygon points="504.896 229.223 425.107 213.354 437.677 150.155 458.208 136.992 520.766 149.434 504.896 229.223" fill="#0cbc8b"></polygon>
      <polygon points="458.208 136.992 437.677 150.155 454.951 153.892 458.208 136.992" fill="#fffffa" opacity="0.29"></polygon>
      <g opacity="0.88">
        <path d="M505.956,177.769a.976.976,0,0,1-.2-.02L444.247,165.27a1,1,0,0,1,.4-1.96l61.509,12.479a1,1,0,0,1-.2,1.98Z" fill="#fff"></path>
        <path d="M503.692,189.466a.976.976,0,0,1-.2-.02l-61.509-12.479a1,1,0,0,1,.4-1.96l61.509,12.479a1,1,0,0,1-.2,1.98Z" fill="#fff"></path>
        <path d="M501.255,202.37a.976.976,0,0,1-.2-.02l-61.509-12.479a1,1,0,1,1,.4-1.96l61.508,12.48a1,1,0,0,1-.2,1.979Z" fill="#fff"></path>
        <path d="M464.96,207.01a.96.96,0,0,1-.2-.02l-27.283-5.536a1,1,0,1,1,.4-1.959l27.283,5.535a1,1,0,0,1-.2,1.98Z" fill="#fff"></path>
      </g>
    </g>
    <path d="M510.427,208.272l-3.965-9.19a5.626,5.626,0,0,1,2.372-7.305,5.421,5.421,0,0,1,7.414,2.634" fill="#E98862"></path>
    <path d="M869.634,444.4l-26.372-21.854a5.419,5.419,0,0,0-7.811.944,5.627,5.627,0,0,0,1.131,7.6l5.635,4.669,26.522,13.736Z" fill="#E98862"></path>
    <g>
      <path d="M842.217,435.752l-24.547-6.574c-2.717-.779-6.548,0-7.22,3.108a5.418,5.418,0,0,0,2.585,6.23.391.391,0,0,0-.034.075c0,.021,0,.041,0,.062l-4.189-1.2a5.425,5.425,0,0,0-6.9,4.776,5.552,5.552,0,0,0,4.106,5.7l1.783.511a.527.527,0,0,0,.057.166,5.419,5.419,0,0,0-5.557,4.2,5.625,5.625,0,0,0,4.084,6.5l4.382,1.256a.5.5,0,0,0-.316.331.485.485,0,0,0,.015.278,5.422,5.422,0,0,0-4.222,4.849,5.551,5.551,0,0,0,4.106,5.7L847.7,482.425A27.3,27.3,0,0,0,876.725,473l10.781-13.791Z" fill="#E98862"></path>
      <g opacity="0.2">
        <path d="M837.3,445.144a.5.5,0,0,1-.61.342L813.354,439.2a.5.5,0,1,1,.26-.966l23.337,6.282a.5.5,0,0,1,.352.613Z" fill="#0c0c0c"></path>
      </g>
      <g opacity="0.2">
        <path d="M834.813,455.513a.5.5,0,0,1-.609.341l-26.044-7.011a.5.5,0,0,1-.352-.613.518.518,0,0,1,.613-.353l26.043,7.011a.5.5,0,0,1,.353.613Z" fill="#0c0c0c"></path>
      </g>
      <g opacity="0.2">
        <path d="M832.185,466.758a.5.5,0,0,1-.61.342L810.8,461.507a.5.5,0,1,1,.26-.965l20.774,5.592a.5.5,0,0,1,.353.613Z" fill="#0c0c0c"></path>
      </g>
    </g>
    <path d="M850.558,492.123,1020.223,541.1a37.5,37.5,0,0,0,43.9-51.449l-57.844-137.8a37.5,37.5,0,1,0-68.557,30.413l34.781,72.465L866.721,430.27Z" fill="#367cff"></path>
    <path d="M993.19,533.795a.477.477,0,0,1-.139-.02L850.419,492.6a.5.5,0,0,1-.344-.606l16.163-61.854a.5.5,0,0,1,.6-.361L971.607,454l-34.331-71.527a.5.5,0,1,1,.9-.433l34.781,72.465a.5.5,0,0,1-.563.7L867.083,430.866l-15.917,60.912,142.163,41.036a.5.5,0,0,1-.139.981Z" fill="#0c0c0c"></path>
    <path d="M989.973,459.024a.553.553,0,0,1-.106-.011l-17.465-3.8a.5.5,0,0,1,.213-.977l17.465,3.8a.5.5,0,0,1-.107.988Z" fill="#0c0c0c"></path>
    <path d="M773.205,388.677a.5.5,0,0,1-.5-.462l-2.228-28.839a.5.5,0,1,1,1-.076l2.228,28.839a.5.5,0,0,1-.46.536A.255.255,0,0,1,773.205,388.677Z" fill="#0c0c0c"></path>
    <circle cx="841.37" cy="222.213" r="3.248" fill="#0c0c0c"></circle>
    <circle cx="874.292" cy="227.775" r="3.248" fill="#0c0c0c"></circle>
  </g>
  <path d="M1007.979,624.533H31.85a1,1,0,0,1,0-2h976.129a1,1,0,0,1,0,2Z" fill="#292a2e"></path>
</svg>