<svg id="Layer_1" data-name="Layer 1" xmlns="http://www.w3.org/2000/svg" viewBox="0 0 746.147 481.426">
  <path d="M740.588,432.986c-6.4,18.51-23.06,34.67-47.27,48.44H44.488C23.248,468.1,9.2,452.516,4.7,434.656c-13.16-52.15-2.38-159.85,80.54-203.31,130.27-68.27,79.32-216.76,291.77-230.66s167.36,187.65,267.35,257.65C726.358,315.746,760.548,375.316,740.588,432.986Z" fill="#262626"></path>
  <g>
    <polygon points="428.178 481.426 274.258 481.426 274.408 479.786 328.858 476.056 359.638 473.936 426.328 469.366 428.178 481.426" fill="#dee8f5"></polygon>
    <polygon points="428.178 481.426 274.258 481.426 274.408 479.786 328.858 476.056 359.638 473.936 426.328 469.366 428.178 481.426" fill="#0f1011" opacity="0.07"></polygon>
    <path d="M447.888,481.426H268.978c.22-1.21.45-2.41.68-3.61l.62.18,1.79-12.27,57.09-3.52,30.32-1.87,87.64-5.41Z" fill="#262626"></path>
    <g>
      <path d="M376.146,177.92c-.023-.414-.023-.828-.023-1.243,0-4.187.162-8.743.575-13.713L371.5,162l-31.545-5.844a133.693,133.693,0,0,1-.391,24.527c-.092.92-.207,1.864-.346,2.807a1.179,1.179,0,0,1-.045.253q-.276,1.864-.621,3.728-.207,1.208-.484,2.415c-.184,1.036-.436,2.048-.713,3.06s-.552,2-.874,2.992c-.3.989-.622,1.956-.99,2.9a38.234,38.234,0,0,1-2.439,5.407v.023a26.959,26.959,0,0,1-7.179,8.789h57.8C380.057,206.819,376.331,196.028,376.146,177.92Z" fill="#E98862"></path>
      <path d="M333.012,204.3l30.538-23.362-23.985-.249C338.65,188.761,336.762,197.425,333.012,204.3Z" opacity="0.15"></path>
      <path d="M397.563,144.181c-2.545,14.7-10.566,28.618-23.532,33.366-15.392,5.636-26.792,6.018-44.539,6.018-24.217,0-23.416-25.256-24.1-50.707-.683-25.553,1.349-52.962,10.92-61.866,19.105-17.773,75.176-6.518,82,23.209C401.84,109.576,399.985,130.19,397.563,144.181Z" fill="#E98862"></path>
      <path d="M292.416,85.764s-9.918-2.215-7.2-12.1c1.8-6.559,10.2-5.1,10.2-5.1s-7.957-1.456-7.957-8.4c0-4.378,3.363-11.79,13.509-7.553,11.9,4.973,25.48,4.334,35.8,2.6,6.021-1.012,11.893-2.423,17.733-2.5l.031-.007,0,.007a68.272,68.272,0,0,1,20.279,2.713c18.453,5.52,46.38,22.066,40.444,59.576-6.627,41.863-26.271,57.872-34.914,63.008a3.94,3.94,0,0,1-5.793-2.2c-2.451-7.846-6.679-27.587-5.493-68.294-56.721-2.782-73.04-3.626-73.04-3.626s-13.355.5-13.355-9.254S292.416,85.764,292.416,85.764Z" fill="#0f1011"></path>
      <g>
        <circle cx="339.999" cy="129.525" r="3.333" fill="#0f1011"></circle>
        <circle cx="313.697" cy="127.368" r="3.333" fill="#0f1011"></circle>
        <path d="M307.919,120.263h.021l8.832-.11a1.566,1.566,0,0,0-.02-3.132h-.02l-8.833.11a1.566,1.566,0,0,0,.02,3.132Z" fill="#0f1011"></path>
        <path d="M347.2,123.483a1.566,1.566,0,0,0,.364-3.089l-8.707-2.1a1.567,1.567,0,0,0-.733,3.047l8.707,2.1A1.613,1.613,0,0,0,347.2,123.483Z" fill="#0f1011"></path>
      </g>
      <path d="M357.342,137.683a14.133,14.133,0,0,0,28.172,2.31c.638-7.78-5.129-14.987-12.931-15.242C362.51,124.423,357.98,129.9,357.342,137.683Z" fill="#E98862"></path>
      <g opacity="0.15">
        <path d="M325.2,148.016a1.15,1.15,0,0,0,.338-2.25l-6.781-2.082,4.743-10.561a1.151,1.151,0,0,0-2.1-.944l-5.277,11.75a1.15,1.15,0,0,0,.712,1.572l8.026,2.465A1.14,1.14,0,0,0,325.2,148.016Z"></path>
      </g>
      <path d="M338.456,155.781s-12.306,1.3-20.932-1.716c0,0,.068,8.1,9.807,8.9S338.456,155.781,338.456,155.781Z" fill="#f8fcff"></path>
    </g>
    <g>
      <path d="M444.288,416.346c4.13,23.02,9.99,46.29,13.81,65.08H254.768c2.79-20.14,7.74-45.51,10.57-74.2a411.194,411.194,0,0,0,2.11-45.39c-.19-17.1-2.74-35.85-4.9-54.2-5.92-50.17-8.93-97.38,46.96-99.79.15-.01.31-.01.48-.02H310l.73-.03c1.31-.04,3.03-.07,5.1-.1a.565.565,0,0,1,.13,0c.11-.01.21-.01.32-.01.14,2.97,4.56,5.24,11.28,6.81.04.01.09.02.14.03,14.27,3.3,38.71,3.46,54.41.45.15-.02.29-.05.44-.08,4.95-.98,9-2.28,11.52-3.9a9.768,9.768,0,0,0,1.24-.93,4.46,4.46,0,0,0,1.59-2.68c.67,0,1.33.01,1.99.02,1.87.04,3.71.12,5.51.26,18.72,1.36,34,7.74,43.3,17.04,24.91,24.91,11.68,61.89.98,98.27-3.61,12.22-6.92,24.37-8.4,35.98v.01q-.42,3.24-.63,6.42c-.12,1.89-.19,3.77-.19,5.63C439.458,385,441.468,400.616,444.288,416.346Z" fill="#367CFF"></path>
      <path d="M315.851,206.053c.6,12.655,7.478,31.269,28.715,32.672,28.3,1.864,50.25-20.063,51.907-32.971H388.4c-10.209,0-56.084.122-65.035.207C320.544,205.989,318.018,206.019,315.851,206.053Z" fill="#E98862"></path>
      <path d="M455.818,417.586c2,19.75,4.14,41.35,6.36,63.84H359.758c-.05-2.51-.08-5.01-.12-7.49q-.09-6.87-.16-13.6c-.19-18.53-.2-36.31.06-53.08q.105-7.3.28-14.34.09-3.24.18-6.42c0-.1,0-.21.01-.31q.465-15.315,1.31-29.2.5-7.86,1.12-15.2.3-3.6.65-7.06c3.1-31.42,11.64-78.84,16.91-106.57.98-5.19,1.85-9.69,2.55-13.26.13-.64.25-1.26.36-1.84.07-.35.14-.68.2-1v-.01c.76-3.85,1.21-6.1,1.25-6.28v-.01s3.89-.27,9.86-.23c1.45,0,3.03.03,4.71.09,1.65.05,3.39.13,5.21.24,10.22.65,22.66,2.38,32.9,6.63,23.72,9.85,32.46,65.13,41.44,102.04.02.07.03.14.05.21l-24.45,85.63Q454.918,408.691,455.818,417.586Z" fill="#fff"></path>
      <path d="M384.379,205.607S359.9,299.82,359.9,396.756l42.341-135.5-13.62-17.107,19.094-13.5-3.589-24.83C397.924,204.557,384.379,205.607,384.379,205.607Z" fill="#f3f5fd"></path>
      <path d="M331.328,336.126c0,2.82-.02,6.3-.05,10.37-.07,6.52-.18,14.56-.33,23.85-.1,6.76-.23,14.17-.38,22.16v.01c-.03,1.59-.06,3.2-.09,4.84-.03,1.54-.06,3.11-.09,4.69-.34,17.99-.76,38.38-1.23,60.16q-.15,6.84-.3,13.85-.06,2.67-.12,5.37H243.6c3.17-28.24,6.16-52.25,8.81-72.25,5.16-39.03,9.01-62.8,10.26-73.05l-29.58-16.03-.83-.45s26.07-95.28,47.89-107.16c9.52-5.18,22.56-5.92,30.34-6.27h.03c.08,0,.17-.01.25-.01,9.49-.43,16.28-.45,16.28-.45s0,.06.01.18c.04.59.16,2.6.35,5.8v.01c.02.41.05.85.08,1.31s.05.94.07,1.44c.27,4.63.6,10.94.98,18.51v.01c.25,5.21.51,11.02.78,17.29.14,3.42.29,6.99.42,10.67.01.01.01.01,0,.02.38,9.85.73,20.52,1.01,31.6v.01q.09,3.765.18,7.59C331.178,312,331.328,324.136,331.328,336.126Z" fill="#fff"></path>
      <path d="M327.064,205.607s8.1,105.167,3.623,187.506L304.958,261.256,317.3,245.95l-15.477-11.7,8.713-28.179Z" fill="#f3f5fd"></path>
      <path d="M341.978,401.85s-49.826,4.545-68.849-24.009a4.343,4.343,0,0,1,4.644-6.625c17.442,4.27,53.695,11.657,53.065-.9l27.625,8.511Z" fill="#E98862"></path>
      <path d="M476.437,419.646a25.085,25.085,0,0,0,24.131-31.922l-23.856-80.672-45.248,20.8,10.71,37.807-101.6-10.9-5.35,49.882L473.758,419.5A24.857,24.857,0,0,0,476.437,419.646Z" fill="#fff"></path>
      <path d="M235.467,411.456a25.066,25.066,0,0,0,3.756-.283L395.228,387.56l-7.507-49.6L273.632,355.224l14.084-38.34-49.253-18.091-26.541,78.93a25.086,25.086,0,0,0,23.545,33.733Z" fill="#fff"></path>
      <path d="M388.821,344.242s26.362-1.865,36.565,19.474l-34.748-3.151Z" fill="#E98862"></path>
      <polygon points="397.527 263.968 398.94 205.273 394.227 205.2 392.595 263.728 397.527 263.968" fill="#0cbc8b"></polygon>
      <path d="M309.725,243.43l1.048-37.227,5.078-.15-.545,37.435a24.174,24.174,0,0,1,21.169,23.948V296.33H330.9V267.436a18.577,18.577,0,1,0-37.153,0V296.33h-5.574V267.436A24.181,24.181,0,0,1,309.725,243.43Z" fill="#0cbc8b"></path>
      <circle cx="395.228" cy="268.131" r="10.804" fill="#0cbc8b"></circle>
      <circle cx="333.744" cy="296.33" r="4.784" fill="#0cbc8b"></circle>
      <circle cx="291.12" cy="296.33" r="4.784" fill="#0cbc8b"></circle>
    </g>
  </g>
  <circle cx="136.818" cy="172.428" r="60.937" fill="#f3f5fd"></circle>
  <circle cx="641.99" cy="372.048" r="60.937" fill="#f3f5fd"></circle>
  <circle cx="589.741" cy="142.98" r="60.937" fill="#f3f5fd"></circle>
  <circle cx="75.881" cy="366.912" r="52.012" fill="#f3f5fd"></circle>
  <g>
    <rect x="129.624" y="142.98" width="14.389" height="58.895" fill="#fd5d76"></rect>
    <rect x="129.624" y="142.98" width="14.389" height="58.895" transform="translate(309.246 35.61) rotate(90)" fill="#fd5d76"></rect>
  </g>
  <g>
    <path d="M81.471,335.288v5.94H48.019v-5.94a2.754,2.754,0,0,1,2.753-2.753H78.717A2.754,2.754,0,0,1,81.471,335.288Z" fill="#262626"></path>
    <path d="M81.471,341.228v56.929a3.131,3.131,0,0,1-3.131,3.131H51.15a3.131,3.131,0,0,1-3.131-3.131V341.228Z" fill="#0cbc8b"></path>
    <rect x="53.609" y="355.848" width="22.273" height="32.401" fill="#fafafa"></rect>
    <path d="M71.657,366.427H57.833a1.047,1.047,0,0,1,0-2.094H71.657a1.047,1.047,0,0,1,0,2.094Z" fill="#d7e8f4"></path>
    <path d="M71.657,370.872H57.833a1.047,1.047,0,1,1,0-2.093H71.657a1.047,1.047,0,1,1,0,2.093Z" fill="#d7e8f4"></path>
    <path d="M71.657,375.318H57.833a1.047,1.047,0,1,1,0-2.094H71.657a1.047,1.047,0,1,1,0,2.094Z" fill="#d7e8f4"></path>
    <path d="M68.794,379.763H60.7a1.047,1.047,0,1,1,0-2.093h8.1a1.047,1.047,0,1,1,0,2.093Z" fill="#d7e8f4"></path>
  </g>
  <g>
    <rect x="69.971" y="358.508" width="35.435" height="46.906" rx="2.684" transform="translate(469.65 294.272) rotate(90)" fill="#262626"></rect>
    <rect x="87.191" y="364.155" width="0.995" height="35.671" rx="0.498" transform="translate(469.679 294.302) rotate(90)" fill="#abcbff"></rect>
    <rect x="66.75" y="371.383" width="9.586" height="3.379" rx="1.689" transform="translate(444.615 301.53) rotate(90)" fill="#fafafa"></rect>
    <rect x="76.312" y="368.28" width="3.379" height="9.586" rx="1.689" fill="#fafafa"></rect>
    <rect x="82.77" y="368.28" width="3.379" height="9.586" rx="1.689" fill="#fafafa"></rect>
    <rect x="89.229" y="368.28" width="3.379" height="9.586" rx="1.689" fill="#fafafa"></rect>
    <rect x="95.687" y="368.28" width="3.379" height="9.586" rx="1.689" fill="#fafafa"></rect>
    <rect x="99.042" y="371.383" width="9.586" height="3.379" rx="1.689" transform="translate(476.908 269.238) rotate(90)" fill="#fafafa"></rect>
    <rect x="66.75" y="389.16" width="9.586" height="3.379" rx="1.689" transform="translate(462.392 319.307) rotate(90)" fill="#fafafa"></rect>
    <rect x="76.312" y="386.056" width="3.379" height="9.586" rx="1.689" fill="#fafafa"></rect>
    <rect x="82.77" y="386.056" width="3.379" height="9.586" rx="1.689" fill="#fafafa"></rect>
    <rect x="89.229" y="386.056" width="3.379" height="9.586" rx="1.689" fill="#fafafa"></rect>
    <rect x="95.687" y="386.056" width="3.379" height="9.586" rx="1.689" fill="#fafafa"></rect>
    <rect x="99.042" y="389.16" width="9.586" height="3.379" rx="1.689" transform="translate(494.684 287.014) rotate(90)" fill="#fafafa"></rect>
  </g>
  <g>
    <path d="M580.193,108.081l-.213,1.851-8.489-.977a3.415,3.415,0,0,0-3.783,3l-6.984,60.707a3.415,3.415,0,0,0,3,3.783l45.322,5.214a3.414,3.414,0,0,0,3.783-3l6.984-60.707a3.415,3.415,0,0,0-3-3.783l-8.49-.977.213-1.851a2.4,2.4,0,0,0-2.114-2.664l-23.564-2.711A2.406,2.406,0,0,0,580.193,108.081Z" fill="#262626"></path>
    <rect x="559.148" y="122.241" width="62.243" height="46.133" rx="1.537" transform="translate(378.449 715.102) rotate(-83.437)" fill="#fafafa"></rect>
    <rect x="590.038" y="103.185" width="7.577" height="22.41" rx="1.045" transform="translate(412.315 691.251) rotate(-83.437)" fill="#0cbc8b"></rect>
    <rect x="592.263" y="149.313" width="1.387" height="26.278" rx="0.694" transform="translate(363.794 732.955) rotate(-83.437)" fill="#9ebcea"></rect>
    <rect x="595.685" y="157.673" width="1.387" height="18.462" rx="0.694" transform="translate(362.405 740.298) rotate(-83.437)" fill="#9ebcea"></rect>
    <g>
      <rect x="584.27" y="122.856" width="1.387" height="25.12" rx="0.694" transform="translate(383.576 701.069) rotate(-83.437)" fill="#9ebcea"></rect>
      <rect x="580.36" y="129.936" width="1.387" height="18.176" rx="0.694" transform="translate(376.528 700.38) rotate(-83.437)" fill="#9ebcea"></rect>
      <rect x="584.498" y="129.841" width="1.387" height="27.435" rx="0.694" transform="translate(375.689 708.508) rotate(-83.437)" fill="#9ebcea"></rect>
      <rect x="581.163" y="136.409" width="1.387" height="21.648" rx="0.694" transform="translate(369.086 708.45) rotate(-83.437)" fill="#9ebcea"></rect>
      <path d="M578.193,129.1l1.024-1.74-1.058-.122-.7,1.21c-.045-.115-1.12-2.787-1.12-2.787a1.5,1.5,0,0,0,.714-.462,1.608,1.608,0,0,0,.348-.887,1.628,1.628,0,0,0-.068-.766,1.3,1.3,0,0,0-.361-.531,1.731,1.731,0,0,0-.584-.329,3.585,3.585,0,0,0-.744-.164l-1.814-.209-.579,5.034,1.134.13.209-1.814.625.072,1.28,3.173-1.057,1.9,1.173.135.7-1.3c.05.115.426,1.432.426,1.432l1.1.128Zm-2.91-4.273-.587-.067.163-1.413.586.068a1.308,1.308,0,0,1,.667.225.566.566,0,0,1,.176.544.683.683,0,0,1-.3.533A1.075,1.075,0,0,1,575.283,124.827Z" fill="#9ebcea"></path>
      <rect x="606.762" y="135.281" width="1.387" height="5.446" rx="0.694" transform="translate(400.928 725.706) rotate(-83.437)" fill="#9ebcea"></rect>
      <rect x="606.302" y="139.286" width="1.387" height="5.446" rx="0.694" transform="translate(396.539 728.795) rotate(-83.437)" fill="#9ebcea"></rect>
      <rect x="605.841" y="143.292" width="1.387" height="5.446" rx="0.694" transform="translate(392.152 731.885) rotate(-83.437)" fill="#9ebcea"></rect>
      <rect x="605.38" y="147.297" width="1.387" height="5.446" rx="0.694" transform="translate(387.766 734.975) rotate(-83.437)" fill="#9ebcea"></rect>
    </g>
  </g>
  <path d="M629.5,373.773l-3.842.641a16.876,16.876,0,0,1-17.473-13.877l-3.525-19.859,3.831-.68,3.526,19.859a12.968,12.968,0,1,0,25.536-4.533l-3.526-19.859,3.831-.68,3.526,19.859A16.88,16.88,0,0,1,629.5,373.773Z" fill="#0f1011"></path>
  <circle cx="606.533" cy="340.345" r="3.34" fill="#262626"></circle>
  <circle cx="635.83" cy="335.145" r="3.34" fill="#262626"></circle>
  <path d="M647.08,415.379c-7.559,0-15.388-4.241-16.98-12.36l-5.026-30.648,3.948-.646,5.014,30.586c1.321,6.726,8.8,9.842,15.255,8.913l4.792-.682a12.625,12.625,0,0,0,10.716-14.32l-2.1-14.442,3.959-.576,2.1,14.442A16.629,16.629,0,0,1,654.646,414.5l-4.791.682A19.682,19.682,0,0,1,647.08,415.379Z" fill="#0f1011"></path>
  <circle cx="664.773" cy="378.627" r="7.728" fill="#262626"></circle>
</svg>