<svg id="Layer_1" data-name="Layer 1" xmlns="http://www.w3.org/2000/svg" viewBox="0 0 479.576 484.841">
  <g>
    <rect x="284.726" y="30.967" width="106.435" height="134.017" fill="#f3f5fd"></rect>
    <path d="M331.432,129.254H299.27c-7.5,0-5.747-6.078-5.747-13.575v-11.7a46.125,46.125,0,0,1,23.241-40.048l.194-.111a8.284,8.284,0,0,1,12.394,7.192v44.662c0,7.5,1.75,13.575-5.747,13.575Z" fill="#d7e8f4"></path>
    <path d="M342.032,129.254h32.162c7.5,0,5.747-6.078,5.747-13.575v-11.7A46.125,46.125,0,0,0,356.7,63.936l-.194-.111a8.284,8.284,0,0,0-12.394,7.192v44.662c0,7.5-1.75,13.575,5.748,13.575Z" fill="#d7e8f4"></path>
    <path d="M356.862,96.206a3.013,3.013,0,0,1-4.256,0L341.051,84.651a6.113,6.113,0,0,0-8.638,0L320.857,96.206A3.009,3.009,0,0,1,316.6,91.95l15.332-15.332a6.063,6.063,0,0,0,1.789-4.32V56.648a3.01,3.01,0,1,1,6.019,0V72.3a6.07,6.07,0,0,0,1.789,4.318L356.862,91.95a3.008,3.008,0,0,1,0,4.256Z" fill="#d7e8f4"></path>
  </g>
  <g>
    <rect x="35.209" y="99.644" width="83.979" height="105.742" fill="#f3f5fd"></rect>
    <ellipse cx="66.329" cy="170.204" rx="7.565" ry="5.028" fill="#c1d8ed"></ellipse>
    <path d="M49.571,178.709c-7.443-2.608-14.095-47.925,5.6-52.158s48.647-8.146,54.126-5.8.528,24.145-19.037,35.558C69.684,168.312,58.623,181.882,49.571,178.709Z" fill="#d7e8f4"></path>
  </g>
  <g>
    <rect x="83.997" y="290.329" width="341.345" height="193.001" transform="translate(509.339 773.658) rotate(-180)" fill="#f3f5fd"></rect>
    <rect x="7.083" y="290.329" width="76.914" height="193.001" fill="#c1d8ed"></rect>
    <rect x="75.313" y="276.859" width="358.713" height="13.47" transform="translate(509.339 567.188) rotate(-180)" fill="#c1d8ed"></rect>
    <rect y="276.859" width="75.313" height="13.47" transform="translate(75.313 567.188) rotate(-180)" fill="#c1d8ed"></rect>
    <rect y="276.859" width="75.313" height="13.47" transform="translate(75.313 567.188) rotate(-180)" opacity="0.08"></rect>
    <rect x="83.997" y="340.033" width="341.345" height="93.592" transform="translate(509.339 773.658) rotate(-180)" fill="#dee8f5"></rect>
    <g>
      <circle cx="254.669" cy="386.829" r="39.149" fill="#fafafa"></circle>
      <polygon points="226.178 381.493 226.178 392.166 249.333 392.166 249.333 415.32 260.006 415.32 260.006 392.166 283.16 392.166 283.16 381.493 260.006 381.493 260.006 358.338 249.333 358.338 249.333 381.493 226.178 381.493" fill="#fd5d76"></polygon>
    </g>
  </g>
  <path d="M380.118,207.036s36.054,12.369,81.5,5.082l-1.147-11.591Z" opacity="0.04"></path>
  <g>
    <g>
      <path d="M177.338,474.022l-20.854-2.481c.939-7.892,2-17.373,2.072-18.927-.005.1,0,.181,0,.245h21C179.552,453.489,179.552,455.4,177.338,474.022Z" fill="#E98862"></path>
      <path d="M93.662,476.532l-21-.069s.07-21.684.07-23.6h21C93.732,454.785,93.662,476.532,93.662,476.532Z" fill="#E98862"></path>
      <path d="M171.876,326.289c-6.851-45.332-10.491-95.91-19.112-140.935l-.267.079-.782-5.33-76.077-4.7L67.2,467.03l36.972,1.451L117.717,233c4.287,21.334,7.528,42.953,11.484,64.322,10.522,55.935,14.207,114.843,18.965,171.457l36.843-3.409C179.582,419.415,176.436,372.327,171.876,326.289Z" fill="#262626"></path>
      <path d="M74.379,218.924s82.105-4.136,82.105-13.015c0-20.431-81.645-2.643-81.645-2.643Z" opacity="0.04"></path>
      <path d="M119.19,484.654a4.108,4.108,0,0,0,4.077-4.427h0a4.109,4.109,0,0,0-2.659-3.529l-24.443-8.187a3.461,3.461,0,0,0-2.872.32,19.112,19.112,0,0,1-11.468,3.4,17.027,17.027,0,0,1-8.82-3.223,1.547,1.547,0,0,0-2.527,1.2v11.952a2.678,2.678,0,0,0,2.688,2.678Z" fill="#c1d8ed"></path>
      <path d="M202.924,484.654A4.107,4.107,0,0,0,207,480.227h0a4.106,4.106,0,0,0-2.658-3.529L179.9,468.511a3.461,3.461,0,0,0-2.872.32,19.112,19.112,0,0,1-11.468,3.4,17.024,17.024,0,0,1-8.82-3.223,1.547,1.547,0,0,0-2.528,1.2v11.952a2.678,2.678,0,0,0,2.689,2.678Z" fill="#c1d8ed"></path>
    </g>
    <g>
      <g>
        <path d="M106.483,55.016c.01-.18.01-.36.01-.54,0-1.82-.07-3.8-.25-5.96l2.26-.42,13.71-2.54a58.132,58.132,0,0,0,.169,10.66c.041.4.09.81.151,1.22a.556.556,0,0,0,.019.109q.12.811.27,1.621.09.525.211,1.05c.079.45.189.89.309,1.329s.241.871.38,1.3.271.85.431,1.26a16.547,16.547,0,0,0,1.06,2.35v.01a11.707,11.707,0,0,0,3.12,3.819h-25.12C104.783,67.576,106.4,62.886,106.483,55.016Z" fill="#E98862"></path>
        <path d="M125.23,66.48,111.957,56.326l10.424-.108A28.736,28.736,0,0,0,125.23,66.48Z" opacity="0.15"></path>
        <path d="M97.175,40.352c1.106,6.388,4.592,12.438,10.227,14.5,6.69,2.45,11.645,2.616,19.358,2.616,10.525,0,10.177-10.977,10.472-22.038.3-11.106-.586-23.019-4.746-26.889C124.183.818,99.813,5.71,96.849,18.63,95.316,25.312,96.122,34.271,97.175,40.352Z" fill="#E98862"></path>
        <path d="M142.874,14.963S147.184,14,146,9.7c-.782-2.851-4.435-2.218-4.435-2.218s3.458-.633,3.458-3.652c0-1.9-1.461-5.124-5.871-3.282-5.174,2.161-11.074,1.883-15.56,1.129A51.71,51.71,0,0,0,115.888.591l-.013,0v0a29.662,29.662,0,0,0-8.814,1.179c-8.02,2.4-20.158,9.59-17.578,25.893,2.881,18.194,11.418,25.152,15.175,27.384a1.711,1.711,0,0,0,2.517-.957c1.066-3.41,2.9-11.99,2.388-29.682,24.652-1.209,31.745-1.576,31.745-1.576s5.8.218,5.8-4.022S142.874,14.963,142.874,14.963Z" fill="#0f1011"></path>
        <g>
          <circle cx="122.193" cy="33.982" r="1.449" fill="#0f1011"></circle>
          <circle cx="133.625" cy="33.045" r="1.449" fill="#0f1011"></circle>
          <path d="M136.135,29.957h-.008l-3.839-.048a.681.681,0,0,1,.009-1.361h.008l3.839.048a.681.681,0,0,1-.009,1.361Z" fill="#0f1011"></path>
          <path d="M119.065,31.356a.68.68,0,0,1-.158-1.342l3.784-.912a.681.681,0,0,1,.318,1.325l-3.784.911A.727.727,0,0,1,119.065,31.356Z" fill="#0f1011"></path>
        </g>
        <path d="M114.655,37.528a6.143,6.143,0,1,1-12.244,1,6.042,6.042,0,0,1,5.62-6.625C112.409,31.765,114.378,34.146,114.655,37.528Z" fill="#E98862"></path>
        <g opacity="0.15">
          <path d="M128.625,42.019a.5.5,0,0,1-.147-.978l2.947-.9-2.061-4.59a.5.5,0,1,1,.912-.41l2.293,5.107a.5.5,0,0,1-.309.683L128.772,42A.5.5,0,0,1,128.625,42.019Z"></path>
        </g>
        <path d="M122.863,45.394s5.349.564,9.1-.746c0,0-.03,3.522-4.262,3.869S122.863,45.394,122.863,45.394Z" fill="#f8fcff"></path>
      </g>
      <path d="M159.052,204.049c-4.192,9.629-88.747,13.151-89.847-3.789-.7-10.78,9.759-40.309,9.759-61.319s-19.33-47.84-3.58-63.59c4.57-4.57,12.46-7.52,22.08-7.53.72,5.61,34.78,5.63,35.04.13,1.3.02,2.31.04,2.94.07,33.18,1.43,18.6,39.19,18.28,66.93C153.334,167.411,163.37,194.128,159.052,204.049Z" fill="#262626"></path>
      <path d="M132.5,67.951c-.26,5.5-3.25,13.59-12.48,14.2-12.3.81-21.84-8.72-22.56-14.33h3.51c4.437,0,8.665,7.178,13.194,7.189,5.492.013,11.181-7.135,15.072-7.1C130.464,67.923,131.562,67.936,132.5,67.951Z" fill="#367CFF"></path>
      <path d="M129.374,67.926c-.211,4.46-2.636,11.019-10.119,11.514-9.973.657-17.708-7.07-18.292-11.619h.024c5.361,0,11.622,0,17.135.024C122.707,67.86,126.774,67.886,129.374,67.926Z" fill="#E98862"></path>
      <path d="M121.333,152.34s21.655,1.975,29.923-10.435a1.887,1.887,0,0,0-2.018-2.879c-7.581,1.856-23.337,5.066-23.063-.393l-12.007,3.7Z" fill="#E98862"></path>
      <path d="M62.894,160.075A10.9,10.9,0,0,1,52.407,146.2l9.055-31.965,20.978,5.943-4.655,16.432,44.157-4.736,2.325,21.68-60.209,6.457A10.822,10.822,0,0,1,62.894,160.075Z" fill="#367CFF"></path>
      <path d="M167.625,156.515a10.846,10.846,0,0,1-1.633-.123l-67.8-10.263,3.263-21.558,49.585,7.5-6.121-16.664,20.468-7.518,12.474,33.96a10.9,10.9,0,0,1-10.233,14.661Z" fill="#367CFF"></path>
      <path d="M100.974,127.3s-11.457-.81-15.892,8.464l15.1-1.369Z" fill="#E98862"></path>
      <rect x="60.603" y="91.296" width="31.2" height="21.804" transform="translate(-42.895 147.663) rotate(-74.185)" fill="#262626"></rect>
      <rect x="138.861" y="81.366" width="21.804" height="31.245" transform="matrix(0.939, -0.345, 0.345, 0.939, -24.257, 57.586)" fill="#262626"></rect>
      <rect x="96.592" y="67.785" width="2.146" height="24.591" transform="translate(-3.773 4.836) rotate(-2.783)" fill="#fff"></rect>
      <path d="M132.351,83.488l-.9-15.623-2.207.047.685,15.6a10.507,10.507,0,0,0-9.2,10.408v12.558h2.423V93.921a8.074,8.074,0,1,1,16.148,0v12.558h2.422V93.921A10.508,10.508,0,0,0,132.351,83.488Z" fill="#fff"></path>
      <circle cx="98.189" cy="94.223" r="4.696" fill="#fff"></circle>
      <circle cx="121.911" cy="106.479" r="2.079" fill="#fff"></circle>
      <circle cx="140.437" cy="106.479" r="2.079" fill="#fff"></circle>
    </g>
  </g>
  <g>
    <g>
      <path d="M357.618,474.022c-2.213-18.618-2.213-20.533-2.213-21.163h21c0-.064,0-.146,0-.245.074,1.554,1.133,11.035,2.072,18.927Z" fill="#E98862"></path>
      <path d="M441.294,476.532s-.07-21.747-.07-23.673h21c0,1.92.07,23.6.07,23.6Z" fill="#E98862"></path>
      <path d="M430.838,469.313l36.869-3.115c-4.492-68.715-18.389-290.79-18.389-290.79l-76.077,4.7-.781,5.33-.267-.079c-8.92,47.286-12.716,99.512-19.947,147.134-.51,44.1-.649,90.293-2.375,134.272l37,.63c-.117-42.928.949-87.845,2.212-130.9,6.311-34.336,11.254-70.271,18.515-104.943C413.934,302.959,424.155,401.111,430.838,469.313Z" fill="#262626"></path>
      <path d="M415.766,484.654a4.107,4.107,0,0,1-4.076-4.427h0a4.106,4.106,0,0,1,2.658-3.529l24.443-8.187a3.461,3.461,0,0,1,2.872.32,19.112,19.112,0,0,0,11.468,3.4,17.024,17.024,0,0,0,8.82-3.223,1.547,1.547,0,0,1,2.528,1.2v11.952a2.678,2.678,0,0,1-2.689,2.678Z" fill="#c1d8ed"></path>
      <path d="M332.032,484.654a4.108,4.108,0,0,1-4.076-4.427h0a4.107,4.107,0,0,1,2.659-3.529l24.442-8.187a3.463,3.463,0,0,1,2.873.32,19.108,19.108,0,0,0,11.467,3.4,17.027,17.027,0,0,0,8.821-3.223,1.547,1.547,0,0,1,2.527,1.2v11.952a2.678,2.678,0,0,1-2.689,2.678Z" fill="#c1d8ed"></path>
    </g>
    <g>
      <g>
        <path d="M283.209,75.138c-2.835,3.253-1.255,8.885,6.261,13.467,11.425,6.964,14.5,3.661,17.331.408s-6.652-7.269-13.219-14.1A6.864,6.864,0,0,0,283.209,75.138Z" fill="#E98862"></path>
        <rect x="244.432" y="47.037" width="49.304" height="65.946" rx="4.648" transform="translate(543.911 137.263) rotate(175.208)" fill="#262626"></rect>
        <rect x="248.07" y="51.191" width="42.024" height="57.583" rx="2.183" transform="translate(543.904 137.208) rotate(175.208)" fill="#fff"></rect>
        <path d="M307.317,87.189c.154.134-13.864-19.179-17.5-15.547-1.6,1.6,3.1,7.092,3.1,7.092" fill="#E98862"></path>
      </g>
      <path d="M341.344,151.859A10.9,10.9,0,0,1,332.7,147.6L291.611,94.1,308.9,80.822l31.87,41.493L352.26,105.3l18.073,12.2-19.952,29.563a10.9,10.9,0,0,1-8.7,4.8C341.567,151.857,341.455,151.859,341.344,151.859Z" fill="#367CFF"></path>
      <path d="M365.905,204.049c4.191,9.629,88.746,13.151,89.846-3.789.7-10.78-9.759-40.309-9.759-61.319s19.331-47.84,3.581-63.59c-4.571-4.57-12.461-7.52-22.081-7.53-.72,5.61-10.26,15.14-22.56,14.33-9.23-.61-12.22-8.7-12.48-14.2-1.3.02-2.31.04-2.94.07-33.18,1.43-18.6,39.19-18.28,66.93C371.622,167.411,361.586,194.128,365.905,204.049Z" fill="#262626"></path>
      <rect x="353.48" y="85.786" width="35.483" height="21.804" transform="translate(83.405 350.293) rotate(-55.983)" fill="#262626"></rect>
      <g>
        <rect x="378.357" y="100.039" width="50.949" height="66.85" transform="translate(-14.822 58.485) rotate(-8.135)" fill="#fff"></rect>
        <rect x="378.388" y="100.481" width="44.698" height="66.85" transform="translate(-14.915 58.051) rotate(-8.135)" fill="#d7e8f4"></rect>
        <polygon points="418.132 97.655 422.11 97.086 423.567 107.415 419.596 107.894 418.132 97.655" fill="#0cbc8b"></polygon>
        <polygon points="420.849 117.422 424.828 116.853 423.567 107.415 419.596 107.894 420.849 117.422" fill="#262626"></polygon>
      </g>
      <path d="M392.452,67.951c.26,5.5,3.25,13.59,12.48,14.2,12.3.81,21.84-8.72,22.56-14.33h-2.881c-4.364,0-10.559,7.179-15.068,7.189-5.963.014-10.1-7.136-14.209-7.095C394.262,67.926,393.3,67.938,392.452,67.951Z" fill="#367CFF"></path>
      <path d="M395.334,67.93c.217,4.595,2.715,11.354,10.427,11.864,10.277.677,18.248-7.286,18.85-11.973h-.025C414.468,67.821,401.233,67.838,395.334,67.93Z" fill="#E98862"></path>
      <path d="M405.157,133.314l.489-.135c-2.848-.878-11.906-5.315-13.331-3.106-.542.84,1.9,2.712,3.757,3.972-4.791,1.155-14.779-.937-20.353-2.3a1.888,1.888,0,0,0-2.019,2.879c8.268,12.411,29.923,10.435,29.923,10.435l7.165-10.008Z" fill="#E98862"></path>
      <path d="M468.675,152.515c-.157,0-.315,0-.474-.01l-66.822-2.9.946-21.784,49.244,2.135-3.6-8.111L467.894,113l10.744,24.191a10.9,10.9,0,0,1-9.963,15.328Z" fill="#367CFF"></path>
      <g>
        <path d="M397.519,70l.78.09h24.649c-2-3.32-4.16-9.83-3.16-22l-15.979-2.96S405.609,64.011,397.519,70Z" fill="#E98862"></path>
        <path d="M400.8,66.057,414.067,55.9,403.643,55.8A28.735,28.735,0,0,1,400.8,66.057Z" opacity="0.15"></path>
        <path d="M428.85,39.929c-1.106,6.389-4.592,12.438-10.228,14.5a40.51,40.51,0,0,1-19.357,2.615c-17.49-1.434-14.03-41.2-5.727-48.926s32.673-2.833,35.638,10.087C430.709,24.889,429.9,33.848,428.85,39.929Z" fill="#E98862"></path>
        <path d="M387.77,9.493a5.564,5.564,0,0,1,2.119-1.96c7.767-4.223,22.16-5.684,29.073-3.616,8.02,2.4,18.077,9.123,15.5,25.425-.108.687-.226,1.348-.347,2a14,14,0,1,1-9.9,20.562,24.66,24.66,0,0,1-3.838,2.723c-.957.569-1.189.106-1.521-.956-1.159-3.711-2.3-18.388-1.389-29.046l-18.847-.651-3.283-9.343-2.692,9.343h-6.418C385.366,18.908,384.478,13.17,387.77,9.493Z" fill="#0f1011"></path>
        <g>
          <circle cx="403.831" cy="33.559" r="1.449" fill="#0f1011"></circle>
          <circle cx="392.4" cy="32.622" r="1.449" fill="#0f1011"></circle>
          <path d="M389.889,29.534h.009l3.839-.048a.681.681,0,0,0-.009-1.362h-.009l-3.839.049a.681.681,0,0,0,.009,1.361Z" fill="#0f1011"></path>
          <path d="M406.959,30.934a.681.681,0,0,0,.158-1.343l-3.784-.911A.681.681,0,1,0,403.015,30l3.784.911A.736.736,0,0,0,406.959,30.934Z" fill="#0f1011"></path>
        </g>
        <path d="M411.369,37.1a6.143,6.143,0,0,0,12.244,1,6.04,6.04,0,0,0-5.62-6.624C413.615,31.342,411.646,33.724,411.369,37.1Z" fill="#E98862"></path>
        <g opacity="0.15">
          <path d="M397.4,41.6a.5.5,0,0,0,.147-.978l-2.947-.905,2.062-4.591a.5.5,0,0,0-.913-.409l-2.293,5.107a.5.5,0,0,0,.309.683l3.488,1.071A.509.509,0,0,0,397.4,41.6Z"></path>
        </g>
        <path d="M403.161,44.971s-5.349.564-9.1-.746c0,0,.03,3.523,4.262,3.87S403.161,44.971,403.161,44.971Z" fill="#f8fcff"></path>
      </g>
      <g>
        <path d="M250.264,60.8a.94.94,0,0,1-.077-1.877l29.674-2.455a.94.94,0,1,1,.155,1.874l-29.673,2.454A.709.709,0,0,1,250.264,60.8Z" fill="#d7e8f4"></path>
        <path d="M250.791,67.3a.94.94,0,0,1-.079-1.877l15.94-1.356a.94.94,0,1,1,.16,1.873L250.871,67.3Z" fill="#d7e8f4"></path>
        <path d="M251.408,71.83a.94.94,0,0,1-.078-1.877l12.028-1.024a.94.94,0,0,1,.16,1.874l-12.029,1.024Q251.448,71.83,251.408,71.83Z" fill="#d7e8f4"></path>
        <path d="M251.705,76.56a.94.94,0,0,1-.078-1.877l12.028-1.023a.94.94,0,1,1,.16,1.873l-12.029,1.023A.732.732,0,0,1,251.705,76.56Z" fill="#d7e8f4"></path>
        <path d="M252.407,85.788a.94.94,0,0,1-.079-1.877l9.008-.767a.94.94,0,0,1,.16,1.874l-9.008.767Q252.448,85.788,252.407,85.788Z" fill="#d7e8f4"></path>
        <path d="M251.966,81.4a.94.94,0,0,1-.079-1.877l14.35-1.221a.94.94,0,0,1,.16,1.874L252.047,81.4Z" fill="#d7e8f4"></path>
        <path d="M281.082,64.446A.94.94,0,0,1,281,62.569l4.33-.368a.94.94,0,0,1,.159,1.873l-4.33.369Z" fill="#d7e8f4"></path>
        <path d="M281.7,68.975a.94.94,0,0,1-.078-1.877l3.712-.316a.94.94,0,0,1,.159,1.874l-3.712.316Q281.74,68.975,281.7,68.975Z" fill="#d7e8f4"></path>
        <path d="M282,73.705a.94.94,0,0,1-.078-1.877l3.98-.339a.94.94,0,0,1,.16,1.874l-3.981.339Q282.037,73.7,282,73.705Z" fill="#d7e8f4"></path>
        <path d="M282.7,82.933a.94.94,0,0,1-.079-1.877l3.857-.328a.94.94,0,1,1,.16,1.873l-3.857.328A.732.732,0,0,1,282.7,82.933Z" fill="#d7e8f4"></path>
        <path d="M282.257,78.546a.94.94,0,0,1-.079-1.877l3.721-.316a.94.94,0,1,1,.158,1.873l-3.72.317Z" fill="#d7e8f4"></path>
      </g>
      <g>
        <path d="M271.943,99.733a.94.94,0,0,1-.079-1.877L287.8,96.5a.94.94,0,1,1,.16,1.874L272.023,99.73Z" fill="#d7e8f4"></path>
        <path d="M275.875,103.48a.94.94,0,0,1-.079-1.877l12.029-1.024a.94.94,0,0,1,.159,1.874l-12.028,1.024Q275.915,103.48,275.875,103.48Z" fill="#d7e8f4"></path>
      </g>
      <path d="M255.928,41.913h20.536a2.156,2.156,0,0,1,2.156,2.156V49.2a0,0,0,0,1,0,0H253.772a0,0,0,0,1,0,0V44.069A2.156,2.156,0,0,1,255.928,41.913Z" transform="translate(-2.875 22.396) rotate(-4.792)" fill="#262626"></path>
      <rect x="440.314" y="85.765" width="21.805" height="33.081" transform="translate(-2.683 191.959) rotate(-23.948)" fill="#262626"></rect>
    </g>
  </g>
</svg>